<svg width="24" height="24" viewBox="0 0 24 24" fill="none" xmlns="http://www.w3.org/2000/svg">
<path d="M21.5 15V9C21.5 7.9 20.6 7 19.5 7H4.5C3.4 7 2.5 7.9 2.5 9V15C2.5 16.1 3.4 17 4.5 17H19.5C20.6 17 21.5 16.1 21.5 15ZM4.5 9H19.5V15H4.5V9Z" fill="#90CAF9"/>
<path d="M19 24C21.7614 24 24 21.7614 24 19C24 16.2386 21.7614 14 19 14C16.2386 14 14 16.2386 14 19C14 21.7614 16.2386 24 19 24Z" fill="#43A047"/>
<path d="M16 18H22V20H16V18Z" fill="white"/>
<path d="M18 16H20V22H18V16Z" fill="white"/>
</svg>
